<svg xmlns="http://www.w3.org/2000/svg" version="1.1" viewBox="0 0 383.76 243.24" fill="#494f4a">
  <path d="M210.04,73.88c.9-.55,1.78-1.18,2.59-1.88,4.72-4.17,7.16-10.15,6.63-16.45-.8-10.1-9.69-17.98-20.19-17.98h-40.61v75.11h47.21c5.25,0,10.2-2.03,13.89-5.75,3.72-3.72,5.75-8.64,5.75-13.89,0-9.29-6.43-17.15-15.27-19.16ZM199.69,73.41h-20.69v18.86l-17.1,14.69V41.01h37.79c8.91,0,16.2,7.26,16.2,16.2,0,4.32-1.68,8.39-4.75,11.45-3.06,3.06-7.13,4.75-11.45,4.75ZM205.67,109.24h-40.83l17.6-15.14v-17.25h23.23c8.94,0,16.2,7.28,16.2,16.2,0,4.32-1.68,8.39-4.75,11.45-3.06,3.06-7.11,4.75-11.45,4.75Z"/>
  <path d="M61.06,153.27c-.69-.44-1.45-.82-2.27-1.12,1.07-.6,2.01-1.37,2.78-2.29,1.34-1.59,2.02-3.48,2.02-5.6,0-1.86-.48-3.54-1.43-5.01-.95-1.46-2.27-2.61-3.92-3.43-1.65-.81-3.54-1.23-5.64-1.23h-15.8v37.69h16.36c1.82,0,3.51-.27,5.02-.81,1.51-.54,2.84-1.33,3.96-2.35,1.11-1.02,1.99-2.22,2.61-3.58.61-1.37.93-2.88.93-4.51s-.41-3.1-1.23-4.42c-.81-1.31-1.94-2.43-3.36-3.34ZM40.35,154.41h12.18c1.8,0,3.42.31,4.82.92,1.38.6,2.49,1.45,3.28,2.52.78,1.05,1.18,2.27,1.18,3.62,0,1.42-.38,2.71-1.14,3.82-.76,1.12-1.83,2-3.17,2.64-1.36.64-2.94.97-4.69.97h-12.46v-14.47ZM58.89,147.82c-.65.98-1.55,1.76-2.67,2.32-1.13.57-2.46.86-3.96.86h-11.9v-12.99h11.79c2.42,0,4.33.62,5.69,1.85,1.34,1.22,2.02,2.79,2.02,4.67,0,1.22-.33,2.33-.97,3.29Z"/>
  <rect x="69.68" y="132.49" width="3.56" height="39.79"/>
  <path d="M100.53,145.38c-2.3-1.24-4.96-1.87-7.92-1.87s-5.62.63-7.92,1.87c-2.3,1.24-4.14,2.97-5.45,5.15-1.31,2.18-1.98,4.7-1.98,7.5s.67,5.4,1.98,7.63c1.32,2.23,3.15,4,5.45,5.26,2.3,1.26,4.96,1.89,7.92,1.89s5.62-.64,7.92-1.89c2.31-1.26,4.13-3.03,5.43-5.26,1.29-2.23,1.95-4.79,1.95-7.63s-.66-5.32-1.95-7.5c-1.29-2.18-3.12-3.91-5.43-5.15ZM92.62,169.41c-2.27,0-4.3-.5-6.04-1.48-1.74-.98-3.12-2.33-4.1-4.02-.98-1.69-1.48-3.66-1.48-5.87s.5-4.07,1.48-5.74c.98-1.67,2.36-3,4.1-3.94,1.74-.95,3.77-1.43,6.04-1.43s4.25.48,5.99,1.43c1.73.95,3.11,2.27,4.1,3.94.98,1.67,1.48,3.6,1.48,5.74s-.5,4.18-1.48,5.87c-.98,1.69-2.36,3.04-4.1,4.02-1.74.98-3.75,1.48-5.98,1.48Z"/>
  <path d="M119.67,148.37c1.64-.96,3.55-1.45,5.67-1.45,1.22,0,2.42.17,3.58.51,1.15.34,2.24.83,3.26,1.46,1.01.63,1.92,1.41,2.71,2.33l.29.34,2.29-2.64-.21-.25c-1.34-1.62-3.03-2.9-5.03-3.8-2-.9-4.24-1.35-6.66-1.35-2.92,0-5.54.63-7.78,1.87-2.25,1.24-4.04,2.98-5.31,5.18-1.28,2.19-1.92,4.74-1.92,7.58s.65,5.38,1.92,7.58c1.28,2.19,3.05,3.95,5.28,5.21,2.22,1.26,4.8,1.89,7.65,1.89,2.24,0,4.42-.45,6.49-1.35,2.07-.9,3.82-2.17,5.19-3.8l.21-.25-2.29-2.63-.29.32c-.83.92-1.76,1.71-2.77,2.33-1,.63-2.1,1.12-3.25,1.46-1.15.34-2.33.51-3.52.51-2.04,0-3.91-.49-5.56-1.45-1.65-.96-2.96-2.31-3.91-4-.95-1.69-1.43-3.65-1.43-5.82s.49-4.12,1.46-5.79c.96-1.67,2.29-3.01,3.94-3.97Z"/>
  <polygon points="151.17 156.22 164.42 144.09 159.59 144.09 144.21 158.22 144.21 132.49 140.65 132.49 140.65 172.28 144.21 172.28 144.21 162.59 148.6 158.57 161.06 172.2 161.14 172.28 165.86 172.28 151.17 156.22"/>
  <path d="M194.31,140.13c-.89-1.6-2.11-2.86-3.66-3.77-1.55-.91-3.3-1.37-5.28-1.37h-15.02v36.92h2.79v-14.92h12.23c1.97,0,3.73-.48,5.28-1.45,1.54-.97,2.77-2.3,3.66-4.01.89-1.7,1.34-3.67,1.34-5.88,0-2.07-.45-3.91-1.34-5.51ZM191.8,150.09c-.6,1.32-1.41,2.36-2.43,3.11-1.03.76-2.19,1.13-3.49,1.13h-12.73v-16.72h12.73c1.3,0,2.47.34,3.49,1.03,1.02.69,1.83,1.63,2.43,2.82.6,1.2.9,2.55.9,4.06,0,1.72-.3,3.24-.9,4.56Z"/>
  <path d="M200.48,171.9v-39.02h2.79v39.02h-2.79Z"/>
  <path d="M221.42,172.43c-2.64,0-5.01-.61-7.09-1.85-2.08-1.23-3.73-2.92-4.94-5.06-1.21-2.14-1.81-4.59-1.81-7.33s.62-5.24,1.87-7.38c1.25-2.14,2.91-3.83,5-5.06,2.08-1.23,4.41-1.85,6.98-1.85,1.49,0,2.91.21,4.25.63,1.34.42,2.55,1.01,3.63,1.77s2.01,1.64,2.79,2.66c.78,1.02,1.34,2.13,1.67,3.32l-1.12-.69.28-7.12h2.68v27.42h-2.79v-6.86l.95-1c-.34,1.16-.89,2.25-1.67,3.27-.78,1.02-1.71,1.92-2.79,2.69s-2.29,1.37-3.63,1.79c-1.34.42-2.76.63-4.25.63ZM221.82,169.79c2.12,0,4.03-.5,5.72-1.5s3.03-2.37,4.02-4.11c.99-1.74,1.48-3.75,1.48-6.04s-.48-4.25-1.45-5.99c-.97-1.74-2.3-3.11-3.99-4.11-1.69-1-3.62-1.5-5.78-1.5s-4.14.5-5.84,1.5c-1.69,1-3.03,2.37-3.99,4.11-.97,1.74-1.45,3.73-1.45,5.99s.47,4.2,1.42,5.96c.95,1.76,2.27,3.15,3.97,4.17,1.69,1.02,3.66,1.53,5.89,1.53Z"/>
  <path d="M242.65,171.9v-27.42h2.68l.28,5.8h-.33c.41-1.16,1.15-2.22,2.23-3.19,1.08-.97,2.37-1.74,3.88-2.32s3.1-.87,4.77-.87c2.05,0,3.79.4,5.22,1.21,1.43.81,2.51,2.06,3.24,3.74.73,1.69,1.09,3.83,1.09,6.43v16.61h-2.79v-16.51c0-2.04-.29-3.72-.87-5.04-.58-1.32-1.42-2.3-2.54-2.95-1.12-.65-2.51-.98-4.19-.98-1.45,0-2.77.24-3.97.71s-2.23,1.12-3.13,1.93c-.9.81-1.58,1.73-2.07,2.77-.48,1.04-.73,2.14-.73,3.3v16.77h-2.79Z"/>
  <path d="M272.69,171.9v-27.42h2.68l.28,5.8h-.33c.41-1.16,1.15-2.22,2.23-3.19,1.08-.97,2.37-1.74,3.88-2.32s3.1-.87,4.77-.87c2.05,0,3.79.4,5.22,1.21,1.43.81,2.51,2.06,3.24,3.74.73,1.69,1.09,3.83,1.09,6.43v16.61h-2.79v-16.51c0-2.04-.29-3.72-.87-5.04-.58-1.32-1.42-2.3-2.54-2.95-1.12-.65-2.51-.98-4.19-.98-1.45,0-2.77.24-3.97.71s-2.23,1.12-3.13,1.93c-.9.81-1.58,1.73-2.07,2.77-.48,1.04-.73,2.14-.73,3.3v16.77h-2.79Z"/>
  <path d="M314.86,172.43c-2.79,0-5.28-.6-7.46-1.79-2.18-1.2-3.88-2.87-5.11-5.01-1.23-2.14-1.84-4.64-1.84-7.49,0-2.07.34-3.97,1.03-5.7.69-1.72,1.65-3.22,2.88-4.51,1.23-1.28,2.71-2.28,4.44-2.98,1.73-.7,3.62-1.05,5.67-1.05s3.83.32,5.44.95,2.99,1.54,4.11,2.72c1.12,1.18,1.95,2.57,2.51,4.17.56,1.6.8,3.37.73,5.3l-.06,1.42h-24.69v-2.43h23.18l-1.23.95v-1.27c0-1.41-.36-2.81-1.09-4.22s-1.83-2.58-3.32-3.53c-1.49-.95-3.37-1.42-5.64-1.42-2.12,0-4.01.44-5.67,1.32-1.66.88-2.96,2.16-3.91,3.85-.95,1.69-1.42,3.78-1.42,6.28s.46,4.47,1.4,6.25c.93,1.78,2.28,3.15,4.05,4.11,1.77.97,3.94,1.45,6.51,1.45,1.38,0,2.79-.21,4.25-.63s3.09-1.34,4.91-2.74l1.45,1.95c-.82.74-1.79,1.42-2.9,2.03-1.12.62-2.37,1.11-3.74,1.48-1.38.37-2.87.55-4.47.55Z"/>
  <path d="M331.78,171.9v-27.42h2.68l.28,6.12h-.39c.41-1.16,1.04-2.25,1.9-3.27.86-1.02,1.91-1.85,3.16-2.48,1.25-.63,2.69-.95,4.33-.95.63,0,1.22.04,1.76.13.54.09,1.03.19,1.48.29l-.84,3.06c-.52-.21-1.03-.35-1.51-.42-.48-.07-.91-.11-1.29-.11-1.49,0-2.78.25-3.88.74-1.1.49-2.01,1.17-2.74,2.03-.73.86-1.27,1.84-1.62,2.93-.35,1.09-.53,2.23-.53,3.43v15.93h-2.79Z"/>
  <path d="M66.81,206.39v-18.2h7.2c.95,0,1.81.23,2.57.7.76.47,1.37,1.11,1.82,1.94s.68,1.75.68,2.77c0,1.08-.23,2.03-.68,2.87s-1.06,1.51-1.82,2c-.76.49-1.62.74-2.57.74h-5.17v7.18h-2.03ZM68.84,197.24h5.28c.54,0,1.02-.16,1.44-.48s.77-.75,1.03-1.3c.26-.55.39-1.17.39-1.89,0-.64-.13-1.22-.39-1.73-.26-.51-.6-.92-1.03-1.22-.42-.3-.91-.46-1.44-.46h-5.28v7.07Z"/>
  <path d="M87.95,206.65c-1.35,0-2.55-.3-3.6-.91-1.05-.61-1.87-1.45-2.47-2.52-.6-1.07-.9-2.3-.9-3.67s.3-2.56.9-3.61c.6-1.06,1.42-1.89,2.47-2.5,1.05-.61,2.25-.91,3.6-.91s2.53.3,3.58.91c1.05.61,1.87,1.44,2.47,2.5.6,1.06.9,2.26.9,3.61s-.3,2.59-.9,3.67c-.6,1.08-1.42,1.92-2.47,2.52-1.05.61-2.24.91-3.58.91ZM87.95,204.81c.95,0,1.8-.23,2.55-.69.75-.46,1.33-1.08,1.74-1.87.42-.79.62-1.69.62-2.69s-.21-1.9-.62-2.68c-.42-.78-1-1.39-1.74-1.83-.75-.44-1.6-.66-2.55-.66s-1.81.22-2.56.66c-.75.44-1.34,1.06-1.77,1.85-.43.79-.63,1.68-.61,2.67-.02,1,.19,1.9.61,2.69.42.79,1.01,1.41,1.77,1.87.75.46,1.61.69,2.56.69Z"/>
  <path d="M100.4,206.39l-4.71-13.57,2.08-.03,3.67,11.05-.65-.05,3.98-8.89h1.17l4,8.89-.78.05,3.74-11.02h2.05l-4.71,13.57h-1.14l-4.21-9.67.78.05-4.08,9.62h-1.2Z"/>
  <path d="M122.84,206.65c-1.35,0-2.55-.29-3.6-.88-1.05-.59-1.87-1.41-2.46-2.47s-.88-2.27-.88-3.64c0-1.06.16-2.01.49-2.87.33-.86.79-1.61,1.39-2.25.6-.64,1.31-1.14,2.15-1.49s1.73-.53,2.7-.53c.92,0,1.75.17,2.51.49.75.33,1.4.78,1.95,1.36.55.58.96,1.27,1.23,2.07.28.8.4,1.67.36,2.63l-.03.91h-11.31l-.29-1.64h10.11l-.47.44v-.62c-.03-.62-.22-1.23-.55-1.81-.33-.58-.79-1.05-1.39-1.42s-1.31-.55-2.15-.55c-.97,0-1.81.19-2.52.58-.71.39-1.26.97-1.64,1.73s-.57,1.71-.57,2.83.21,2.01.62,2.79c.42.79,1.01,1.4,1.78,1.83.77.43,1.7.65,2.8.65.64,0,1.28-.11,1.91-.33s1.33-.65,2.09-1.29l1.01,1.4c-.4.4-.88.75-1.43,1.05-.56.3-1.16.55-1.82.73-.66.18-1.33.27-2.03.27Z"/>
  <path d="M131.47,206.39v-13.57h1.95l.05,3.61-.21-.49c.19-.61.5-1.17.92-1.69.42-.52.93-.94,1.52-1.25.59-.31,1.24-.47,1.95-.47.29,0,.57.02.83.07.26.04.48.1.65.17l-.55,2.18c-.23-.1-.46-.18-.69-.22-.23-.04-.46-.06-.66-.06-.59,0-1.12.1-1.59.31s-.87.5-1.2.87c-.33.37-.58.8-.75,1.29s-.26,1-.26,1.56v7.7h-1.98Z"/>
  <path d="M146.58,206.65c-1.35,0-2.55-.29-3.6-.88-1.05-.59-1.87-1.41-2.46-2.47s-.88-2.27-.88-3.64c0-1.06.16-2.01.49-2.87.33-.86.79-1.61,1.39-2.25.6-.64,1.31-1.14,2.15-1.49s1.73-.53,2.7-.53c.92,0,1.75.17,2.51.49.75.33,1.4.78,1.95,1.36.55.58.96,1.27,1.23,2.07.28.8.4,1.67.36,2.63l-.03.91h-11.31l-.29-1.64h10.11l-.47.44v-.62c-.03-.62-.22-1.23-.55-1.81-.33-.58-.79-1.05-1.39-1.42s-1.31-.55-2.15-.55c-.97,0-1.81.19-2.52.58-.71.39-1.26.97-1.64,1.73s-.57,1.71-.57,2.83.21,2.01.62,2.79c.42.79,1.01,1.4,1.78,1.83.77.43,1.7.65,2.8.65.64,0,1.28-.11,1.91-.33s1.33-.65,2.09-1.29l1.01,1.4c-.4.4-.88.75-1.43,1.05-.56.3-1.16.55-1.82.73-.66.18-1.33.27-2.03.27Z"/>
  <path d="M160.72,206.65c-1.23,0-2.34-.3-3.31-.91-.98-.61-1.75-1.44-2.31-2.51-.56-1.07-.84-2.27-.84-3.63s.29-2.59.86-3.65c.57-1.07,1.34-1.9,2.31-2.51.97-.61,2.06-.91,3.28-.91.68,0,1.33.1,1.96.31.63.21,1.2.5,1.7.87s.92.8,1.25,1.27c.33.48.53.98.6,1.5l-.6-.21v-9.13h1.95v19.24h-1.92l-.05-3.38.49-.18c-.07.49-.26.96-.58,1.42-.32.46-.72.87-1.21,1.23-.49.36-1.04.65-1.65.86s-1.25.31-1.91.31ZM161.01,204.86c.9,0,1.71-.22,2.42-.68.71-.45,1.27-1.07,1.68-1.87.41-.8.61-1.71.61-2.73s-.2-1.93-.61-2.72c-.41-.79-.97-1.41-1.68-1.87-.71-.46-1.52-.69-2.42-.69s-1.75.23-2.46.69c-.7.46-1.26,1.08-1.66,1.87-.41.79-.61,1.69-.61,2.72s.2,1.91.6,2.7c.4.8.95,1.43,1.66,1.89.71.46,1.53.69,2.47.69Z"/>
  <path d="M185.53,206.65c-.64,0-1.27-.1-1.87-.3-.61-.2-1.16-.47-1.65-.82-.49-.35-.91-.75-1.25-1.2-.34-.45-.57-.92-.69-1.4l.57.03-.08,3.41h-1.92v-19.21h1.95v8.92l-.39.1c.12-.49.34-.95.66-1.39.32-.44.72-.83,1.21-1.17.48-.34,1.02-.6,1.6-.79.58-.19,1.18-.29,1.81-.29,1.21,0,2.3.3,3.26.91.96.61,1.73,1.44,2.3,2.5.57,1.06.86,2.27.86,3.64s-.28,2.59-.83,3.65c-.56,1.07-1.31,1.9-2.28,2.51-.96.61-2.05.91-3.26.91ZM185.22,204.81c.92,0,1.73-.23,2.44-.69.71-.46,1.27-1.08,1.68-1.87.41-.79.61-1.68.61-2.66s-.2-1.9-.61-2.68c-.41-.78-.97-1.39-1.68-1.85-.71-.45-1.53-.68-2.44-.68s-1.73.23-2.44.68c-.71.45-1.27,1.07-1.68,1.85-.41.78-.61,1.67-.61,2.68s.2,1.9.61,2.69c.41.79.97,1.41,1.68,1.86.71.45,1.52.68,2.44.68Z"/>
  <path d="M196.5,212.37l2.63-6.4.18,1.85-6.81-15h2.21l4.65,10.4c.14.28.28.6.42.97.14.37.27.74.39,1.11l-.73-.08c.12-.29.24-.6.35-.91.11-.31.22-.62.32-.91l4.08-10.58h2.24l-5.49,13.57-2.34,5.98h-2.11Z"/>
  <path d="M216.55,206.39v-18.2h2.03v16.22h8.74v1.98h-10.76Z"/>
  <path d="M235.97,206.65c-1.35,0-2.55-.3-3.6-.91-1.05-.61-1.87-1.45-2.47-2.52-.6-1.07-.9-2.3-.9-3.67s.3-2.56.9-3.61c.6-1.06,1.42-1.89,2.47-2.5,1.05-.61,2.25-.91,3.6-.91s2.53.3,3.58.91c1.05.61,1.87,1.44,2.47,2.5.6,1.06.9,2.26.9,3.61s-.3,2.59-.9,3.67c-.6,1.08-1.42,1.92-2.47,2.52-1.05.61-2.24.91-3.58.91ZM235.97,204.81c.95,0,1.8-.23,2.55-.69.75-.46,1.33-1.08,1.74-1.87.42-.79.62-1.69.62-2.69s-.21-1.9-.62-2.68c-.42-.78-1-1.39-1.74-1.83-.75-.44-1.6-.66-2.55-.66s-1.81.22-2.56.66c-.75.44-1.34,1.06-1.77,1.85-.43.79-.63,1.68-.61,2.67-.02,1,.19,1.9.61,2.69.42.79,1.01,1.41,1.77,1.87.75.46,1.61.69,2.56.69Z"/>
  <path d="M244.55,194.69v-1.87h8.45v1.87h-8.45ZM247.61,206.39v-17.13h1.95v17.13h-1.95Z"/>
  <path d="M255.44,206.39v-19.24h1.95v19.24h-1.95Z"/>
  <path d="M266.98,206.65c-1.35,0-2.55-.3-3.6-.91-1.05-.61-1.87-1.45-2.47-2.52-.6-1.07-.9-2.3-.9-3.67s.3-2.56.9-3.61c.6-1.06,1.42-1.89,2.47-2.5,1.05-.61,2.25-.91,3.6-.91s2.53.3,3.58.91c1.05.61,1.87,1.44,2.47,2.5.6,1.06.9,2.26.9,3.61s-.3,2.59-.9,3.67c-.6,1.08-1.42,1.92-2.47,2.52-1.05.61-2.24.91-3.58.91ZM266.98,204.81c.95,0,1.8-.23,2.55-.69.75-.46,1.33-1.08,1.74-1.87.42-.79.62-1.69.62-2.69s-.21-1.9-.62-2.68c-.42-.78-1-1.39-1.74-1.83-.75-.44-1.6-.66-2.55-.66s-1.81.22-2.56.66c-.75.44-1.34,1.06-1.77,1.85-.43.79-.63,1.68-.61,2.67-.02,1,.19,1.9.61,2.69.42.79,1.01,1.41,1.77,1.87.75.46,1.61.69,2.56.69Z"/>
  <path d="M282.61,212.37c-1.01,0-1.96-.16-2.86-.47-.9-.31-1.65-.7-2.24-1.17l.78-1.64c.35.28.75.52,1.21.74.46.22.96.39,1.5.52.54.13,1.08.2,1.64.2,1.01,0,1.86-.19,2.56-.56.7-.37,1.24-.92,1.61-1.65.37-.73.56-1.63.56-2.7v-2.6l.31-.08c-.16.66-.49,1.27-1.01,1.83s-1.15,1.01-1.9,1.35-1.53.51-2.37.51c-1.27,0-2.4-.3-3.39-.91-1-.61-1.78-1.44-2.35-2.51-.57-1.07-.86-2.27-.86-3.63s.29-2.59.87-3.65c.58-1.07,1.36-1.9,2.35-2.51.99-.61,2.1-.91,3.33-.91.54,0,1.06.07,1.56.2.5.13.97.32,1.39.56.42.24.81.52,1.16.83.35.31.64.65.87,1.01.23.36.4.74.51,1.12l-.55-.08.08-3.35h1.95v12.74c0,1.09-.16,2.06-.47,2.9-.31.84-.77,1.55-1.36,2.13-.6.58-1.31,1.02-2.13,1.33-.82.3-1.74.46-2.74.46ZM282.64,204.78c.92,0,1.74-.22,2.46-.66.72-.44,1.29-1.05,1.7-1.83.42-.78.62-1.68.62-2.7s-.2-1.9-.61-2.68c-.41-.78-.97-1.39-1.7-1.85-.73-.45-1.55-.68-2.47-.68s-1.76.23-2.48.68c-.72.45-1.29,1.07-1.7,1.85-.42.78-.62,1.67-.62,2.68s.2,1.88.61,2.66c.41.79.97,1.41,1.69,1.86.72.45,1.56.68,2.51.68Z"/>
  <path d="M294.6,189.88c-.49,0-.85-.13-1.1-.38-.25-.25-.38-.59-.38-1.03s.13-.78.39-1.04c.26-.26.62-.39,1.09-.39s.83.13,1.09.38c.26.25.39.6.39,1.05,0,.42-.13.75-.39,1.01-.26.26-.62.39-1.09.39ZM293.63,206.39v-13.57h1.95v13.57h-1.95Z"/>
  <path d="M305.57,206.65c-1.28,0-2.43-.31-3.43-.92-1.01-.62-1.8-1.46-2.38-2.52-.58-1.07-.87-2.28-.87-3.63s.29-2.56.87-3.63c.58-1.07,1.37-1.9,2.38-2.51,1-.61,2.16-.91,3.46-.91,1.16,0,2.22.23,3.17.69.95.46,1.72,1.1,2.29,1.91l-1.14,1.4c-.33-.43-.72-.82-1.18-1.14-.46-.33-.95-.58-1.48-.77-.53-.18-1.05-.27-1.57-.27-.92,0-1.74.23-2.47.69s-1.3,1.08-1.73,1.86c-.42.78-.64,1.67-.64,2.68s.21,1.9.64,2.69c.42.79,1,1.41,1.73,1.86.73.45,1.54.68,2.44.68.52,0,1.03-.08,1.53-.25.5-.16.98-.4,1.43-.71.45-.31.87-.7,1.25-1.17l1.14,1.4c-.59.78-1.38,1.4-2.37,1.87-.99.47-2.01.7-3.07.7Z"/>
</svg>