<svg xmlns="http://www.w3.org/2000/svg" version="1.1" viewBox="0 0 380 111.84" fill="#494f4a">
  <path d="M57.04,55.84c-.69-.44-1.45-.82-2.27-1.12,1.07-.6,2.01-1.37,2.78-2.29,1.34-1.59,2.02-3.48,2.02-5.6,0-1.86-.48-3.54-1.43-5.01-.95-1.46-2.27-2.61-3.92-3.43-1.65-.81-3.54-1.23-5.64-1.23h-15.8v37.69h16.36c1.82,0,3.51-.27,5.02-.81,1.51-.54,2.84-1.33,3.96-2.35,1.11-1.02,1.99-2.22,2.61-3.58.61-1.37.93-2.88.93-4.51s-.41-3.1-1.23-4.42c-.81-1.31-1.94-2.43-3.36-3.34ZM36.33,56.97h12.18c1.8,0,3.42.31,4.82.92,1.38.6,2.49,1.45,3.28,2.52.78,1.05,1.18,2.27,1.18,3.62,0,1.42-.38,2.71-1.14,3.82-.76,1.12-1.83,2-3.17,2.64-1.36.64-2.94.97-4.69.97h-12.46v-14.47ZM54.87,50.39c-.65.98-1.55,1.76-2.67,2.32-1.13.57-2.46.86-3.96.86h-11.9v-12.99h11.79c2.42,0,4.33.62,5.69,1.85,1.34,1.22,2.02,2.79,2.02,4.67,0,1.22-.33,2.33-.97,3.29Z"/>
  <rect x="65.66" y="35.05" width="3.56" height="39.79"/>
  <path d="M96.51,47.94c-2.3-1.24-4.96-1.87-7.92-1.87s-5.62.63-7.92,1.87c-2.3,1.24-4.14,2.97-5.45,5.15-1.31,2.18-1.98,4.7-1.98,7.5s.67,5.4,1.98,7.63c1.32,2.23,3.15,4,5.45,5.26,2.3,1.26,4.96,1.89,7.92,1.89s5.62-.64,7.92-1.89c2.31-1.26,4.13-3.03,5.43-5.26,1.29-2.23,1.95-4.79,1.95-7.63s-.66-5.32-1.95-7.5c-1.29-2.18-3.12-3.91-5.43-5.15ZM88.6,71.97c-2.27,0-4.3-.5-6.04-1.48-1.74-.98-3.12-2.33-4.1-4.02-.98-1.69-1.48-3.66-1.48-5.87s.5-4.07,1.48-5.74c.98-1.67,2.36-3,4.1-3.94,1.74-.95,3.77-1.43,6.04-1.43s4.25.48,5.99,1.43c1.73.95,3.11,2.27,4.1,3.94.98,1.67,1.48,3.6,1.48,5.74s-.5,4.18-1.48,5.87c-.98,1.69-2.36,3.04-4.1,4.02-1.74.98-3.75,1.48-5.98,1.48Z"/>
  <path d="M115.65,50.93c1.64-.96,3.55-1.45,5.67-1.45,1.22,0,2.42.17,3.58.51,1.15.34,2.24.83,3.26,1.46,1.01.63,1.92,1.41,2.71,2.33l.29.34,2.29-2.64-.21-.25c-1.34-1.62-3.03-2.9-5.03-3.8-2-.9-4.24-1.35-6.66-1.35-2.92,0-5.54.63-7.78,1.87-2.25,1.24-4.04,2.98-5.31,5.18-1.28,2.19-1.92,4.74-1.92,7.58s.65,5.38,1.92,7.58c1.28,2.19,3.05,3.95,5.28,5.21,2.22,1.26,4.8,1.89,7.65,1.89,2.24,0,4.42-.45,6.49-1.35,2.07-.9,3.82-2.17,5.19-3.8l.21-.25-2.29-2.63-.29.32c-.83.92-1.76,1.71-2.77,2.33-1,.63-2.1,1.12-3.25,1.46-1.15.34-2.33.51-3.52.51-2.04,0-3.91-.49-5.56-1.45-1.65-.96-2.96-2.31-3.91-4-.95-1.69-1.43-3.65-1.43-5.82s.49-4.12,1.46-5.79c.96-1.67,2.29-3.01,3.94-3.97Z"/>
  <polygon points="147.15 58.78 160.4 46.66 155.57 46.66 140.19 60.78 140.19 35.05 136.63 35.05 136.63 74.85 140.19 74.85 140.19 65.15 144.58 61.14 157.04 74.77 157.12 74.85 161.85 74.85 147.15 58.78"/>
  <path d="M190.29,42.69c-.89-1.6-2.11-2.86-3.66-3.77-1.55-.91-3.3-1.37-5.28-1.37h-15.02v36.92h2.79v-14.92h12.23c1.97,0,3.73-.48,5.28-1.45,1.54-.97,2.77-2.3,3.66-4.01.89-1.7,1.34-3.67,1.34-5.88,0-2.07-.45-3.91-1.34-5.51ZM187.78,52.66c-.6,1.32-1.41,2.36-2.43,3.11-1.03.76-2.19,1.13-3.49,1.13h-12.73v-16.72h12.73c1.3,0,2.47.34,3.49,1.03,1.02.69,1.83,1.63,2.43,2.82.6,1.2.9,2.55.9,4.06,0,1.72-.3,3.24-.9,4.56Z"/>
  <path d="M196.46,74.46v-39.02h2.79v39.02h-2.79Z"/>
  <path d="M217.41,74.99c-2.64,0-5.01-.61-7.09-1.85-2.08-1.23-3.73-2.92-4.94-5.06-1.21-2.14-1.81-4.59-1.81-7.33s.62-5.24,1.87-7.38c1.25-2.14,2.91-3.83,5-5.06,2.08-1.23,4.41-1.85,6.98-1.85,1.49,0,2.91.21,4.25.63,1.34.42,2.55,1.01,3.63,1.77s2.01,1.64,2.79,2.66c.78,1.02,1.34,2.13,1.67,3.32l-1.12-.69.28-7.12h2.68v27.42h-2.79v-6.86l.95-1c-.34,1.16-.89,2.25-1.67,3.27-.78,1.02-1.71,1.92-2.79,2.69s-2.29,1.37-3.63,1.79c-1.34.42-2.76.63-4.25.63ZM217.8,72.35c2.12,0,4.03-.5,5.72-1.5s3.03-2.37,4.02-4.11c.99-1.74,1.48-3.75,1.48-6.04s-.48-4.25-1.45-5.99c-.97-1.74-2.3-3.11-3.99-4.11-1.69-1-3.62-1.5-5.78-1.5s-4.14.5-5.84,1.5-3.03,2.37-3.99,4.11c-.97,1.74-1.45,3.73-1.45,5.99s.47,4.2,1.42,5.96c.95,1.76,2.27,3.15,3.97,4.17,1.69,1.02,3.66,1.53,5.89,1.53Z"/>
  <path d="M238.63,74.46v-27.42h2.68l.28,5.8h-.33c.41-1.16,1.15-2.22,2.23-3.19,1.08-.97,2.37-1.74,3.88-2.32s3.1-.87,4.77-.87c2.05,0,3.79.4,5.22,1.21,1.43.81,2.51,2.06,3.24,3.74.73,1.69,1.09,3.83,1.09,6.43v16.61h-2.79v-16.51c0-2.04-.29-3.72-.87-5.04-.58-1.32-1.42-2.3-2.54-2.95-1.12-.65-2.51-.98-4.19-.98-1.45,0-2.77.24-3.97.71s-2.23,1.12-3.13,1.93c-.9.81-1.58,1.73-2.07,2.77-.48,1.04-.73,2.14-.73,3.3v16.77h-2.79Z"/>
  <path d="M268.67,74.46v-27.42h2.68l.28,5.8h-.33c.41-1.16,1.15-2.22,2.23-3.19,1.08-.97,2.37-1.74,3.88-2.32s3.1-.87,4.77-.87c2.05,0,3.79.4,5.22,1.21,1.43.81,2.51,2.06,3.24,3.74.73,1.69,1.09,3.83,1.09,6.43v16.61h-2.79v-16.51c0-2.04-.29-3.72-.87-5.04-.58-1.32-1.42-2.3-2.54-2.95-1.12-.65-2.51-.98-4.19-.98-1.45,0-2.77.24-3.97.71s-2.23,1.12-3.13,1.93c-.9.81-1.58,1.73-2.07,2.77-.48,1.04-.73,2.14-.73,3.3v16.77h-2.79Z"/>
  <path d="M310.84,74.99c-2.79,0-5.28-.6-7.46-1.79s-3.88-2.87-5.11-5.01c-1.23-2.14-1.84-4.64-1.84-7.49,0-2.07.34-3.97,1.03-5.7.69-1.72,1.65-3.22,2.88-4.51,1.23-1.28,2.71-2.28,4.44-2.98,1.73-.7,3.62-1.05,5.67-1.05s3.83.32,5.44.95,2.99,1.54,4.11,2.72c1.12,1.18,1.95,2.57,2.51,4.17.56,1.6.8,3.37.73,5.3l-.06,1.42h-24.69v-2.43h23.18l-1.23.95v-1.27c0-1.41-.36-2.81-1.09-4.22s-1.83-2.58-3.32-3.53c-1.49-.95-3.37-1.42-5.64-1.42-2.12,0-4.01.44-5.67,1.32-1.66.88-2.96,2.16-3.91,3.85-.95,1.69-1.42,3.78-1.42,6.28s.46,4.47,1.4,6.25c.93,1.78,2.28,3.15,4.05,4.11,1.77.97,3.94,1.45,6.51,1.45,1.38,0,2.79-.21,4.25-.63s3.09-1.34,4.91-2.74l1.45,1.95c-.82.74-1.79,1.42-2.9,2.03-1.12.62-2.37,1.11-3.74,1.48-1.38.37-2.87.55-4.47.55Z"/>
  <path d="M327.76,74.46v-27.42h2.68l.28,6.12h-.39c.41-1.16,1.04-2.25,1.9-3.27.86-1.02,1.91-1.85,3.16-2.48,1.25-.63,2.69-.95,4.33-.95.63,0,1.22.04,1.76.13.54.09,1.03.19,1.48.29l-.84,3.06c-.52-.21-1.03-.35-1.51-.42-.48-.07-.91-.11-1.29-.11-1.49,0-2.78.25-3.88.74-1.1.49-2.01,1.17-2.74,2.03-.73.86-1.27,1.84-1.62,2.93-.35,1.09-.53,2.23-.53,3.43v15.93h-2.79Z"/>
</svg>