<svg viewBox="0 0 496 496" fill="#000000" xmlns="http://www.w3.org/2000/svg" xmlns:xlink="http://www.w3.org/1999/xlink" xml:space="preserve">
	<path d="M496,0H0v320h118.416l-32,176h48.264l32-176H224v176h48V320h57.32l32,176h48.264l-32-176H496V0z M121.328,480h-15.736 l29.088-160h15.736L121.328,480z M256,480h-16V320h16V480z M390.416,480H374.68l-29.088-160h15.736L390.416,480z M480,304H16V16 h464V304z"/>
	<path d="M40,288h224V160h16v-25.64L253.272,72H120V48h16V32H48v16h16v24H50.728L24,134.36V160h16V288z M176,272h-48v-72h48V272z M248,272h-56v-88h-80v88H56V160h192V272z M80,48h24v24H80V48z M40,137.64L61.272,88h181.456L264,137.64V144H40V137.64z"/>
	<path d="M464,32H296v96h168V32z M448,112H312V48h136V112z"/>
	<rect x="296" y="144" width="168" height="16"/>
	<rect x="296" y="176" width="168" height="16"/>
	<rect x="296" y="208" width="168" height="16"/>
	<rect x="296" y="240" width="168" height="16"/>
	<rect x="448" y="272" width="16" height="16"/>
	<rect x="296" y="272" width="136" height="16"/>
</svg>