
<svg viewBox="0 0 499.576 499.576" fill="#000000" xmlns="http://www.w3.org/2000/svg" xmlns:xlink="http://www.w3.org/1999/xlink" xml:space="preserve">
	<path d="M499.576,217.788v-120h-72v-48h16v-48h-128v48h16v48H211.952l-32.288-16.992L0,170.628l7.16,14.312l12.416-6.208v44.304 l16-8.424v235.176h-32v48h496v-48h-16v-232H499.576z M331.576,17.788h96v16h-96V17.788z M411.576,49.788v48h-64v-48H411.576z M483.576,113.788v48H333.552l-91.2-48H483.576z M467.576,217.788v232h-144V214.62l6.024,3.168H467.576z M35.576,170.732 L179.48,98.78l144.096,75.84v21.92l-144-75.792l-144,75.792V170.732z M107.576,289.788v160h-56V206.196l128-67.368l128,67.368 v243.592h-56v-160H107.576z M235.576,305.788v144h-48v-144H235.576z M171.576,305.788v144h-48v-144H171.576z M483.576,481.788 h-464v-16h88h144h232V481.788z M339.576,201.788v-24h144v24H339.576z"/>
	<path d="M131.576,273.788h96v-96h-96V273.788z M187.576,193.788h24v24h-24V193.788z M187.576,233.788h24v24h-24V233.788z M147.576,193.788h24v24h-24V193.788z M147.576,233.788h24v24h-24V233.788z"/>
	<path d="M443.576,233.788h-96v136h96V233.788z M427.576,353.788h-64v-16h64V353.788z M427.576,321.788h-64v-72h64V321.788z"/>
	<rect x="347.576" y="385.788" width="96" height="16"/>
</svg>